<svg width="36" height="36" viewBox="0 0 36 36" fill="none" xmlns="http://www.w3.org/2000/svg">
<g clip-path="url(#clip0_679_51)">
<path d="M36 0H0V36H36V0Z" fill="#330000"/>
<path d="M24.2228 12.2828C24.5898 12.6324 25.0791 12.83 25.5837 12.8148C26.1037 12.8452 26.6236 12.6476 26.9753 12.2828C27.3423 11.9029 27.5258 11.4013 27.5105 10.8846C27.5258 10.383 27.3423 9.8967 27.0059 9.53194C26.6695 9.18238 26.2107 9 25.6143 9C25.1097 9 24.6203 9.18238 24.2533 9.53194C23.8863 9.8815 23.6875 10.3678 23.7028 10.8846C23.6875 11.4013 23.871 11.9029 24.2228 12.2828Z" fill="#FF9A00"/>
<path d="M23.871 14.3042V26.0068C23.871 26.1588 23.9475 26.25 24.1004 26.25H27.0977C27.2353 26.25 27.2964 26.174 27.2964 26.0068V14.3042C27.2964 14.1674 27.2353 14.0914 27.0977 14.0914H24.0698C23.9322 14.0914 23.871 14.1522 23.871 14.3042Z" fill="#FF9A00"/>
<path fill-rule="evenodd" clip-rule="evenodd" d="M11.6376 22.3895H17.3262L18.5802 26.0067C18.6108 26.1131 18.7178 26.1891 18.8249 26.1739H22.0209C22.1738 26.1739 22.2197 26.0979 22.1738 25.9307L16.5922 10.2765C16.5769 10.2006 16.5158 10.155 16.3934 10.155H12.4328C12.3563 10.1702 12.2952 10.2461 12.3105 10.3221C12.3105 10.6565 12.2799 10.9909 12.2187 11.31C12.1754 11.4392 12.1397 11.5608 12.1063 11.6748C12.0925 11.7217 12.0792 11.7673 12.0658 11.8116L7.14175 25.9003C7.09588 26.0827 7.14175 26.1739 7.30997 26.1739H10.1849C10.3225 26.1891 10.4448 26.0979 10.4754 25.9611L11.6376 22.3895ZM16.4087 19.3043H12.5245C12.7539 18.666 12.9833 17.9517 13.1974 17.1765C13.3489 16.7061 13.4945 16.2356 13.6379 15.7724C13.7261 15.4874 13.8135 15.2051 13.9008 14.9272C14.1149 14.2737 14.2831 13.6202 14.4208 12.9666H14.4513C14.511 13.17 14.5707 13.3827 14.633 13.605C14.6825 13.7814 14.7336 13.9638 14.7878 14.1521C14.9101 14.5928 15.0477 15.0336 15.2007 15.5047C15.2771 15.7403 15.3497 15.9721 15.4224 16.2039C15.495 16.4356 15.5677 16.6674 15.6441 16.903C15.7817 17.3589 15.9194 17.7997 16.057 18.21C16.1946 18.6052 16.317 18.9851 16.4087 19.3043Z" fill="#FF9A00"/>
</g>
<rect x="0.5" y="0.5" width="35" height="35" rx="4.5" stroke="black" stroke-opacity="0.1"/>
<defs>
<clipPath id="clip0_679_51">
<rect width="36" height="36" rx="5" fill="white"/>
</clipPath>
</defs>
</svg>
