<svg width="36" height="36" viewBox="0 0 36 36" fill="none" xmlns="http://www.w3.org/2000/svg">
<g clip-path="url(#clip0_679_63)">
<rect width="36" height="36" rx="5" fill="#001E36"/>
<path d="M36 0H0V36H36V0Z" fill="#001E36"/>
<path fill-rule="evenodd" clip-rule="evenodd" d="M7.875 10.0097V25.7305C7.875 25.868 7.93441 25.9291 8.05324 25.9291H10.9349C11.0388 25.9138 11.1131 25.8222 11.0982 25.7152V20.8111C11.3805 20.8111 11.5884 20.8111 11.7369 20.8264C11.8855 20.8416 12.1231 20.8416 12.4796 20.8416C13.6976 20.8416 14.8117 20.7041 15.8217 20.3222C16.7872 19.9555 17.619 19.3139 18.2131 18.4583C18.8073 17.6027 19.1044 16.518 19.1044 15.2041C19.1044 14.5166 18.9855 13.8597 18.7627 13.218C18.5251 12.5611 18.1537 11.9653 17.6784 11.4764C17.114 10.9111 16.4307 10.4833 15.688 10.2236C14.8562 9.90278 13.8462 9.75 12.6282 9.75C12.1826 9.75 11.7369 9.75 11.2765 9.76528C11.0542 9.77265 10.8388 9.77647 10.6304 9.78016C10.407 9.78412 10.1916 9.78793 9.98422 9.79583C9.7897 9.80324 9.60218 9.80706 9.41995 9.81077C9.22645 9.8147 9.03893 9.81852 8.85534 9.82639C8.51371 9.84167 8.27606 9.84167 8.02355 9.84167C7.91957 9.84167 7.875 9.90278 7.875 10.0097ZM11.1131 17.9236V12.7903C11.2171 12.775 11.425 12.7597 11.7221 12.775C12.0043 12.7597 12.3459 12.7597 12.7321 12.7597C13.3411 12.7444 13.9353 12.8361 14.4849 13.0653C14.9156 13.2333 15.2721 13.5389 15.5246 13.9361C15.7623 14.3486 15.8811 14.8222 15.8663 15.2958C15.8663 15.968 15.7177 16.4875 15.4058 16.8694C15.079 17.2514 14.6631 17.5416 14.1878 17.6791C13.6382 17.8625 13.0589 17.9541 12.4796 17.9541H11.6924C11.5269 17.9541 11.3487 17.941 11.1576 17.9269C11.1429 17.9258 11.128 17.9247 11.1131 17.9236Z" fill="#31A8FF"/>
<path d="M26.947 16.4722C27.4521 16.5792 27.9274 16.7472 28.373 16.9917C28.4324 17.0222 28.5067 17.0222 28.6404 16.9917C28.6849 16.9611 28.7146 16.9 28.7146 16.8389V14.3486C28.7146 14.2875 28.6998 14.2264 28.6849 14.1653C28.6552 14.1042 28.5958 14.0431 28.5364 14.0278C28.1353 13.8598 27.7046 13.7375 27.259 13.6764C26.65 13.5848 26.0261 13.5389 25.4171 13.5389C24.3625 13.5389 23.4861 13.707 22.788 14.0736C22.1493 14.3792 21.5997 14.8681 21.2284 15.4792C20.9016 16.0445 20.7234 16.6709 20.7234 17.3278C20.7085 17.8625 20.8273 18.3972 21.065 18.8861C21.3472 19.4056 21.7334 19.8486 22.1939 20.1847C22.8474 20.6431 23.5456 21.0097 24.3031 21.2847C25.0309 21.575 25.5211 21.8042 25.7588 22.0028C25.9964 22.2014 26.1152 22.4 26.1152 22.6139C26.1152 22.8889 25.9519 23.1486 25.7142 23.2556C25.4468 23.3931 25.0458 23.4694 24.4813 23.4694C23.8872 23.4694 23.2931 23.3931 22.7286 23.2403C22.0751 23.0875 21.4661 22.8431 20.8868 22.4917C20.8422 22.4611 20.7976 22.4458 20.7531 22.4764C20.7085 22.5069 20.6937 22.5681 20.6937 22.6139V25.2722C20.6788 25.3944 20.7531 25.5014 20.8571 25.5625C21.3324 25.7917 21.8523 25.9597 22.3721 26.0514C23.0405 26.1889 23.709 26.25 24.3922 26.25C25.4617 26.25 26.3529 26.0819 27.0807 25.7611C27.7491 25.4861 28.3284 25.0125 28.7443 24.4014C29.1305 23.8056 29.3385 23.0875 29.3236 22.3694C29.3385 21.8194 29.2197 21.2847 28.982 20.7958C28.6998 20.2764 28.2987 19.8486 27.8086 19.5278C27.0956 19.0695 26.3232 18.6875 25.5211 18.4125C25.1646 18.2597 24.8081 18.0917 24.4665 17.9084C24.2734 17.8014 24.0952 17.6639 23.9615 17.4959C23.8723 17.3736 23.8129 17.2361 23.8129 17.0986C23.8129 16.9611 23.8575 16.8084 23.9318 16.6861C24.0357 16.5334 24.1991 16.4264 24.3922 16.3806C24.6744 16.3042 24.9864 16.2584 25.2834 16.2736C25.8479 16.2736 26.3975 16.35 26.947 16.4722Z" fill="#31A8FF"/>
</g>
<rect x="0.5" y="0.5" width="35" height="35" rx="4.5" stroke="black" stroke-opacity="0.1"/>
<defs>
<clipPath id="clip0_679_63">
<rect width="36" height="36" rx="5" fill="white"/>
</clipPath>
</defs>
</svg>
