<svg width="36" height="36" viewBox="0 0 36 36" fill="none" xmlns="http://www.w3.org/2000/svg">
<g clip-path="url(#clip0_679_93)">
<path d="M36 0H0V36H36V0Z" fill="white"/>
<path d="M28.5748 6L26.648 27.5975L17.9869 30L9.34958 27.6009L7.4248 6H28.5748Z" fill="#264DE4"/>
<path d="M24.9986 26.2222L26.6452 7.76611H18V28.1635L24.9986 26.2222Z" fill="#2965F1"/>
<path d="M11.8374 15.7778L12.0747 18.4271H17.9999V15.7778H11.8374Z" fill="#EBEBEB"/>
<path d="M17.9997 10.4155H17.9905H11.3604L11.601 13.0648H17.9997V10.4155Z" fill="#EBEBEB"/>
<path d="M17.9997 25.4143V22.658L17.9881 22.6611L15.0393 21.8644L14.8508 19.7515H13.4179H12.1929L12.5638 23.9112L17.9876 25.4177L17.9997 25.4143Z" fill="#EBEBEB"/>
<path d="M21.2511 18.4269L20.9438 21.8628L17.9907 22.6603V25.4165L23.4188 23.9113L23.4586 23.4637L24.0808 16.4891L24.1454 15.7777L24.6234 10.4155H17.9907V13.0648H21.7217L21.4808 15.7777H17.9907V18.4269H21.2511Z" fill="white"/>
</g>
<rect x="0.5" y="0.5" width="35" height="35" rx="4.5" stroke="black" stroke-opacity="0.1"/>
<defs>
<clipPath id="clip0_679_93">
<rect width="36" height="36" rx="5" fill="white"/>
</clipPath>
</defs>
</svg>
