<svg width="36" height="36" viewBox="0 0 36 36" fill="none" xmlns="http://www.w3.org/2000/svg">
<g clip-path="url(#clip0_679_111)">
<path d="M36 0H0V36H36V0Z" fill="#171717"/>
<path d="M18.0498 18C18.0498 15.7909 19.8406 14 22.0498 14C24.2589 14 26.0498 15.7909 26.0498 18C26.0498 20.2092 24.2589 22 22.0498 22C19.8406 22 18.0498 20.2092 18.0498 18Z" fill="#1ABCFE"/>
<path d="M10.0498 26C10.0498 23.7909 11.8407 22 14.0498 22H18.0498V26C18.0498 28.2092 16.259 30 14.0498 30C11.8407 30 10.0498 28.2092 10.0498 26Z" fill="#0ACF83"/>
<path d="M18.0498 6V14H22.0498C24.259 14 26.0498 12.2091 26.0498 10C26.0498 7.79086 24.259 6 22.0498 6H18.0498Z" fill="#FF7262"/>
<path d="M10.0498 10C10.0498 12.2091 11.8407 14 14.0498 14H18.0498V6H14.0498C11.8407 6 10.0498 7.79086 10.0498 10Z" fill="#F24E1E"/>
<path d="M10.0498 18C10.0498 20.2092 11.8407 22 14.0498 22H18.0498V14H14.0498C11.8407 14 10.0498 15.7909 10.0498 18Z" fill="#A259FF"/>
</g>
<rect x="0.5" y="0.5" width="35" height="35" rx="4.5" stroke="black" stroke-opacity="0.1"/>
<defs>
<clipPath id="clip0_679_111">
<rect width="36" height="36" rx="5" fill="white"/>
</clipPath>
</defs>
</svg>
