<svg width="36" height="36" viewBox="0 0 36 36" fill="none" xmlns="http://www.w3.org/2000/svg">
<g clip-path="url(#clip0_679_127)">
<path d="M36 0H0V36H36V0Z" fill="white"/>
<path d="M11.7093 21.4638L8.25 17.9991L19.4823 6.75H26.4L11.7093 21.4638ZM26.4 17.1306H19.4823L16.891 19.726L20.3503 23.1908" fill="#42A5F5" fill-opacity="0.8"/>
<path d="M16.8911 26.6548L19.4824 29.2501H26.4001L20.3504 23.1909" fill="#0D47A1"/>
<path d="M13.4399 23.1926L16.8938 19.7324L20.3476 23.1917L16.8938 26.6519L13.4399 23.1926Z" fill="#42A5F5"/>
<path d="M16.8936 26.6517L20.3474 23.1924L20.8295 23.6753L17.3757 27.1346L16.8936 26.6517Z" fill="url(#paint0_linear_679_127)"/>
<path d="M16.8911 26.6547L22.0238 24.8787L20.3504 23.1899" fill="url(#paint1_linear_679_127)"/>
</g>
<rect x="0.5" y="0.5" width="35" height="35" rx="4.5" stroke="black" stroke-opacity="0.1"/>
<defs>
<linearGradient id="paint0_linear_679_127" x1="18.6211" y1="24.9214" x2="19.1041" y2="25.4035" gradientUnits="userSpaceOnUse">
<stop offset="0.2" stop-opacity="0.15"/>
<stop offset="0.85" stop-color="#616161" stop-opacity="0.01"/>
</linearGradient>
<linearGradient id="paint1_linear_679_127" x1="16.8923" y1="24.9224" x2="22.0249" y2="24.9224" gradientUnits="userSpaceOnUse">
<stop offset="0.2" stop-opacity="0.55"/>
<stop offset="0.85" stop-color="#616161" stop-opacity="0.01"/>
</linearGradient>
<clipPath id="clip0_679_127">
<rect width="36" height="36" rx="5" fill="white"/>
</clipPath>
</defs>
</svg>
