<svg width="36" height="36" viewBox="0 0 36 36" fill="none" xmlns="http://www.w3.org/2000/svg">
<g clip-path="url(#clip0_679_143)">
<path d="M36 0H0V36H36V0Z" fill="#231E1B"/>
<path fill-rule="evenodd" clip-rule="evenodd" d="M17.9633 6C11.3578 6 6 11.3351 6 17.9126C6 23.1746 9.44954 27.6327 14.1468 29.2405C14.7339 29.3136 14.9541 28.9482 14.9541 28.6559C14.9541 28.3635 14.9541 27.6327 14.9541 26.6095C11.6514 27.3404 10.9174 25.0017 10.9174 25.0017C10.4037 23.6131 9.59633 23.2477 9.59633 23.2477C8.49541 22.5169 9.66972 22.5169 9.66972 22.5169C10.844 22.5899 11.5046 23.7593 11.5046 23.7593C12.6055 25.5864 14.2936 25.0748 14.9541 24.7825C15.0275 23.9785 15.3945 23.467 15.6881 23.1746C13.0459 22.8823 10.2569 21.8591 10.2569 17.2549C10.2569 15.9394 10.6972 14.9162 11.5046 14.0392C11.4312 13.8199 10.9908 12.5775 11.6514 10.9697C11.6514 10.9697 12.6789 10.6773 14.9541 12.2121C15.9083 11.9198 16.9358 11.8467 17.9633 11.8467C18.9908 11.8467 20.0183 11.9928 20.9725 12.2121C23.2477 10.6773 24.2752 10.9697 24.2752 10.9697C24.9358 12.5775 24.4954 13.8199 24.422 14.1123C25.156 14.9162 25.6697 16.0124 25.6697 17.3279C25.6697 21.9322 22.8807 22.8823 20.2385 23.1746C20.6789 23.54 21.0459 24.2709 21.0459 25.3671C21.0459 26.975 21.0459 28.2174 21.0459 28.6559C21.0459 28.9482 21.2661 29.3136 21.8532 29.2405C26.6239 27.6327 30 23.1746 30 17.9126C29.9266 11.3351 24.5688 6 17.9633 6Z" fill="white"/>
</g>
<rect x="0.5" y="0.5" width="35" height="35" rx="4.5" stroke="black" stroke-opacity="0.1"/>
<defs>
<clipPath id="clip0_679_143">
<rect width="36" height="36" rx="5" fill="white"/>
</clipPath>
</defs>
</svg>
