<svg width="36" height="36" viewBox="0 0 36 36" fill="none" xmlns="http://www.w3.org/2000/svg">
<g clip-path="url(#clip0_679_163)">
<path d="M36 0H0V36H36V0Z" fill="#F7DF1E"/>
<path d="M24.1595 28.047C24.8701 29.2068 25.7947 30.0592 27.4298 30.0592C28.8035 30.0592 29.681 29.373 29.681 28.4248C29.681 27.2886 28.7794 26.8862 27.2674 26.2251L26.4387 25.8697C24.0464 24.851 22.4572 23.5749 22.4572 20.877C22.4572 18.3919 24.3516 16.5 27.3122 16.5C29.42 16.5 30.9353 17.2332 32.0273 19.1531L29.4458 20.8098C28.8774 19.7912 28.2642 19.3898 27.3122 19.3898C26.3412 19.3898 25.7258 20.0055 25.7258 20.8098C25.7258 21.8039 26.3418 22.2063 27.7641 22.822L28.5929 23.1769C31.4096 24.3842 33 25.615 33 28.3823C33 31.3656 30.6553 33 27.5066 33C24.4278 33 22.4387 31.5335 21.4654 29.6115L24.1595 28.047ZM12.4486 28.3342C12.9694 29.2577 13.4431 30.0385 14.5821 30.0385C15.6713 30.0385 16.3584 29.6126 16.3584 27.9564V16.6892H19.6735V28.0011C19.6735 31.4322 17.6609 32.9938 14.7232 32.9938C12.0689 32.9938 10.5317 31.6208 9.75 29.9672L12.4486 28.3342Z" fill="black"/>
</g>
<rect x="0.5" y="0.5" width="35" height="35" rx="4.5" stroke="black" stroke-opacity="0.1"/>
<defs>
<clipPath id="clip0_679_163">
<rect width="36" height="36" rx="5" fill="white"/>
</clipPath>
</defs>
</svg>
