<svg width="36" height="36" viewBox="0 0 36 36" fill="none" xmlns="http://www.w3.org/2000/svg">
<g clip-path="url(#clip0_679_181)">
<path d="M36 0H0V36H36V0Z" fill="white"/>
<path fill-rule="evenodd" clip-rule="evenodd" d="M10.1386 10.0865C10.9167 10.7187 11.2086 10.6705 12.6699 10.573L26.4456 9.74579C26.7378 9.74579 26.4948 9.45431 26.3974 9.40588L24.1095 7.75194C23.6712 7.41159 23.0871 7.02182 21.9677 7.11933L8.62868 8.09223C8.1422 8.14047 8.04504 8.38371 8.23876 8.57866L10.1386 10.0865ZM10.9656 13.2969V27.7914C10.9656 28.5704 11.3549 28.8618 12.231 28.8136L27.3706 27.9376C28.2472 27.8894 28.3448 27.3536 28.3448 26.7208V12.3236C28.3448 11.6918 28.1018 11.3511 27.5652 11.3997L11.7442 12.3236C11.1603 12.3726 10.9656 12.6647 10.9656 13.2969ZM25.9113 14.0744C26.0084 14.5126 25.9113 14.9504 25.4723 14.9997L24.7429 15.145V25.8458C24.1095 26.1862 23.5255 26.3808 23.0388 26.3808C22.2597 26.3808 22.0645 26.1374 21.4809 25.4082L16.7094 17.9176V25.165L18.2193 25.5057C18.2193 25.5057 18.2193 26.3808 17.0011 26.3808L13.6429 26.5756C13.5454 26.3808 13.6429 25.8948 13.9836 25.7975L14.8599 25.5546V15.9722L13.6432 15.8747C13.5456 15.4365 13.7886 14.8046 14.4706 14.7556L18.0732 14.5128L23.0388 22.1009V15.3882L21.7728 15.2429C21.6756 14.7072 22.0645 14.3183 22.5514 14.27L25.9113 14.0744ZM7.5087 6.77903L21.3835 5.75725C23.0873 5.61112 23.5257 5.70901 24.5966 6.48691L29.0256 9.59985C29.7564 10.1352 30 10.2809 30 10.8644V27.9376C30 29.0076 29.6102 29.6404 28.2474 29.7372L12.1346 30.7102C11.1116 30.759 10.6247 30.6132 10.089 29.9318L6.82742 25.7001C6.24304 24.9211 6 24.3384 6 23.6566V8.48082C6 7.60581 6.38991 6.87589 7.5087 6.77903Z" fill="black"/>
</g>
<rect x="0.5" y="0.5" width="35" height="35" rx="4.5" stroke="black" stroke-opacity="0.1"/>
<defs>
<clipPath id="clip0_679_181">
<rect width="36" height="36" rx="5" fill="white"/>
</clipPath>
</defs>
</svg>
