<svg width="36" height="36" viewBox="0 0 36 36" fill="none" xmlns="http://www.w3.org/2000/svg">
<g clip-path="url(#clip0_680_2516)">
<path d="M36 0H0V36H36V0Z" fill="white"/>
<mask id="mask0_680_2516" style="mask-type:alpha" maskUnits="userSpaceOnUse" x="6" y="6" width="24" height="24">
<path d="M23.0188 29.7742C23.3968 29.9215 23.8279 29.912 24.2094 29.7285L29.1506 27.3509C29.6698 27.101 30 26.5755 30 25.999V9.87731C30 9.30082 29.6698 8.77534 29.1506 8.5255L24.2094 6.14781C23.7087 5.90688 23.1227 5.96589 22.6833 6.28538C22.6205 6.33102 22.5607 6.38197 22.5046 6.43813L13.0452 15.0681L8.92492 11.9404C8.54137 11.6493 8.00487 11.6731 7.64864 11.9972L6.32713 13.1993C5.89139 13.5957 5.89089 14.2812 6.32605 14.6782L9.89931 17.9381L6.32605 21.1981C5.89089 21.5951 5.89139 22.2806 6.32713 22.677L7.64864 23.879C8.00487 24.2031 8.54137 24.227 8.92492 23.9359L13.0452 20.8082L22.5046 29.4381C22.6542 29.5879 22.8299 29.7006 23.0188 29.7742ZM24.0037 12.4899L16.8262 17.9381L24.0037 23.3864V12.4899Z" fill="white"/>
</mask>
<g mask="url(#mask0_680_2516)">
<path d="M29.1653 8.52949L24.2202 6.14853C23.6479 5.87294 22.9638 5.98919 22.5146 6.4384L6.32625 21.1984C5.89082 21.5954 5.89132 22.2809 6.32733 22.6773L7.64964 23.8793C8.0061 24.2034 8.54292 24.2272 8.9267 23.9362L28.4212 9.14717C29.0752 8.65103 30.0146 9.11749 30.0146 9.9384V9.88099C30.0146 9.30476 29.6845 8.77947 29.1653 8.52949Z" fill="#0065A9"/>
<path d="M29.1653 27.3473L24.2202 29.7282C23.6479 30.0038 22.9638 29.8875 22.5146 29.4384L6.32625 14.6784C5.89082 14.2814 5.89132 13.5958 6.32733 13.1995L7.64964 11.9974C8.0061 11.6733 8.54292 11.6495 8.9267 11.9406L28.4212 26.7295C29.0752 27.2257 30.0146 26.7593 30.0146 25.9383V25.9958C30.0146 26.572 29.6845 27.0972 29.1653 27.3473Z" fill="#007ACC"/>
<path d="M24.2044 29.7299C23.6319 30.0052 22.9478 29.8889 22.4985 29.4396C23.052 29.9931 23.9985 29.6011 23.9985 28.8183V7.06091C23.9985 6.2781 23.052 5.88606 22.4985 6.4396C22.9478 5.99034 23.6319 5.87392 24.2044 6.14928L29.1486 8.52697C29.6682 8.77681 29.9985 9.30229 29.9985 9.87878V26.0005C29.9985 26.577 29.6682 27.1025 29.1486 27.3523L24.2044 29.7299Z" fill="#1F9CF0"/>
<path d="M23.0188 29.7743C23.3968 29.9214 23.8279 29.9121 24.2094 29.7285L29.1506 27.3508C29.6698 27.101 30 26.5755 30 25.999V9.8773C30 9.30082 29.6698 8.77534 29.1506 8.52549L24.2094 6.14781C23.7087 5.90688 23.1227 5.96589 22.6832 6.28538C22.6205 6.33102 22.5607 6.38197 22.5045 6.43813L13.0452 15.0681L8.92492 11.9404C8.54137 11.6493 8.00487 11.6731 7.64864 11.9972L6.32713 13.1993C5.89139 13.5957 5.89089 14.2812 6.32605 14.6782L9.89931 17.9381L6.32605 21.1981C5.89089 21.5951 5.89139 22.2806 6.32713 22.677L7.64864 23.8791C8.00487 24.2032 8.54137 24.227 8.92492 23.9359L13.0452 20.8082L22.5045 29.4382C22.6541 29.5879 22.8299 29.7007 23.0188 29.7743ZM24.0037 12.4899L16.8262 17.9381L24.0037 23.3864V12.4899Z" fill="url(#paint0_linear_680_2516)" fill-opacity="0.25"/>
</g>
</g>
<rect x="0.5" y="0.5" width="35" height="34.7188" rx="4.5" stroke="black" stroke-opacity="0.1"/>
<defs>
<linearGradient id="paint0_linear_680_2516" x1="18" y1="6" x2="18" y2="29.8763" gradientUnits="userSpaceOnUse">
<stop stop-color="white"/>
<stop offset="1" stop-color="white" stop-opacity="0"/>
</linearGradient>
<clipPath id="clip0_680_2516">
<rect width="36" height="35.7188" rx="5" fill="white"/>
</clipPath>
</defs>
</svg>
