<svg width="36" height="36" viewBox="0 0 36 36" fill="none" xmlns="http://www.w3.org/2000/svg">
<g clip-path="url(#clip0_679_215)">
<path d="M36 0H0V36H36V0Z" fill="white"/>
<path fill-rule="evenodd" clip-rule="evenodd" d="M6 17.9996C6 11.383 11.3834 6 18 6C24.6165 6 30.0004 11.383 30.0006 17.9996C30.0006 24.6172 24.6165 30 18 30C11.3832 30 6 24.617 6 17.9996ZM6.55023 17.9996C6.55023 24.3132 11.6868 29.4498 18 29.4498C24.3129 29.4498 29.4492 24.3132 29.4492 17.9996C29.4492 11.6866 24.3131 6.55042 18 6.55042C11.6866 6.55042 6.55023 11.6866 6.55023 17.9996ZM7.70572 17.9996C7.70572 22.0745 10.0737 25.5956 13.5075 27.2645L8.59698 13.8101C8.00832 15.1283 7.70461 16.556 7.70572 17.9996ZM24.9494 17.4801C24.9494 16.2079 24.4924 15.3268 24.1005 14.6411C24.0603 14.5757 24.0202 14.5111 23.9806 14.4471C23.5062 13.6816 23.0897 13.0096 23.0897 12.227C23.0897 11.2807 23.8073 10.3999 24.8182 10.3999C24.8476 10.3999 24.876 10.4022 24.9044 10.4046C24.9202 10.4059 24.9359 10.4072 24.9518 10.4081C23.1201 8.73018 20.68 7.70572 18 7.70572C14.4036 7.70572 11.2396 9.55091 9.39891 12.3457C9.64043 12.353 9.86824 12.3579 10.0614 12.3579C11.1381 12.3579 12.8049 12.2272 12.8049 12.2272C13.3598 12.1945 13.4252 13.0096 12.8711 13.0752C12.8711 13.0752 12.3132 13.1408 11.6927 13.1733L15.4414 24.3238L17.6944 17.5673L16.0904 13.1731C15.536 13.1406 15.0109 13.075 15.0109 13.075C14.4561 13.0425 14.5212 12.1943 15.0759 12.227C15.0759 12.227 16.7759 12.3577 17.7875 12.3577C18.864 12.3577 20.531 12.227 20.531 12.227C21.0863 12.1943 21.1515 13.0094 20.597 13.075C20.597 13.075 20.0381 13.1406 19.4188 13.1731L23.1389 24.2392L24.1655 20.8079L24.2461 20.5506C24.651 19.2593 24.9494 18.3074 24.9494 17.4801ZM18.1807 18.9001L15.092 27.8749C16.0363 28.1532 17.0156 28.2945 18 28.2945C19.1988 28.2945 20.3485 28.087 21.4186 27.7109C21.3898 27.666 21.3653 27.6185 21.3453 27.5691L18.1807 18.9001ZM27.0329 13.0607C27.0771 13.3886 27.1022 13.7408 27.1022 14.1192C27.1022 15.1639 26.9071 16.3382 26.3195 17.8065L23.175 26.8978C26.2354 25.1132 28.294 21.7975 28.294 17.9996C28.2967 16.2733 27.8629 14.5744 27.0329 13.0607Z" fill="#00749A"/>
</g>
<rect x="0.5" y="0.5" width="35" height="35" rx="4.5" stroke="black" stroke-opacity="0.1"/>
<defs>
<clipPath id="clip0_679_215">
<rect width="36" height="36" rx="5" fill="white"/>
</clipPath>
</defs>
</svg>
